<svg xmlns="http://www.w3.org/2000/svg" viewBox="0 0 48 48"><g data-name="cooking pot"><path fill="#333" d="M39 24h4a2 2 0 0 1 2 2v1a2 2 0 0 1-2 2h-4v-5ZM9 29H5a2 2 0 0 1-2-2v-1a2 2 0 0 1 2-2h4v5Z"/><path fill="#ff5543" d="M40 20v18a3.999 3.999 0 0 1-4 4H12a3.999 3.999 0 0 1-4-4V20Z"/><path fill="#ff7752" d="M25.94 20a50.396 50.396 0 0 1-13.09 22H12a3.999 3.999 0 0 1-4-4V20Z"/><path fill="#333" d="M28 12h-8a1 1 0 0 1-1-1V9a3.003 3.003 0 0 1 3-3h4a3.003 3.003 0 0 1 3 3v2a1 1 0 0 1-1 1Zm-7-2h6V9a1 1 0 0 0-1-1h-4a1 1 0 0 0-1 1Z"/><path fill="#e6e6e6" d="M38.82 16.48a.99.99 0 0 1-.87.52h-27.9a1.008 1.008 0 0 1-.85-1.53C11.66 11.54 17.47 9 24 9a23.583 23.583 0 0 1 3.8.3c4.92.77 9.03 3.02 11 6.17a.989.989 0 0 1 .02 1.01Z"/><path fill="#f2f2f2" d="M27.8 9.3a51.176 51.176 0 0 1-1.09 7.7H10.05a1.008 1.008 0 0 1-.85-1.53C11.66 11.54 17.47 9 24 9a23.583 23.583 0 0 1 3.8.3Z"/><rect width="38" height="4" x="5" y="16" fill="#ee4042" rx="1"/><path fill="#ff5543" d="M26.92 16c-.27 1.36-.6 2.69-.98 4H6a1.003 1.003 0 0 1-1-1v-2a1.003 1.003 0 0 1 1-1Z"/><path d="M36 43H12a5.006 5.006 0 0 1-5-5V20a1 1 0 0 1 1-1h32a1 1 0 0 1 1 1v18a5.006 5.006 0 0 1-5 5ZM9 21v17a3.003 3.003 0 0 0 3 3h24a3.003 3.003 0 0 0 3-3V21Z"/><path d="M42 21H6a2.002 2.002 0 0 1-2-2v-2a2.002 2.002 0 0 1 2-2h36a2.002 2.002 0 0 1 2 2v2a2.002 2.002 0 0 1-2 2ZM6 17v2h36.002L42 17Z"/><path d="M37.95 17h-27.9a1 1 0 0 1-.848-1.53C11.659 11.54 17.467 9 24 9s12.341 2.54 14.798 6.47A1 1 0 0 1 37.95 17Zm-25.794-2h23.688C33.3 12.555 28.826 11 24 11s-9.3 1.555-11.844 4Z"/><path d="M28 11h-8a1 1 0 0 1-1-1V8a3.003 3.003 0 0 1 3-3h4a3.003 3.003 0 0 1 3 3v2a1 1 0 0 1-1 1zm-7-2h6V8a1 1 0 0 0-1-1h-4a1 1 0 0 0-1 1zm23 21h-4a1 1 0 0 1-1-1v-5a1 1 0 0 1 1-1h4a3.003 3.003 0 0 1 3 3v1a3.003 3.003 0 0 1-3 3zm-3-2h3a1 1 0 0 0 1-1v-1a1 1 0 0 0-1-1h-3zM8 30H4a3.003 3.003 0 0 1-3-3v-1a3.003 3.003 0 0 1 3-3h4a1 1 0 0 1 1 1v5a1 1 0 0 1-1 1zm-4-5a1 1 0 0 0-1 1v1a1 1 0 0 0 1 1h3v-3z"/></g></svg>